<svg width="74.000000" height="74.000000" viewBox="0 0 74 74" fill="none" xmlns="http://www.w3.org/2000/svg" xmlns:xlink="http://www.w3.org/1999/xlink">
	<desc>
			Created with Pixso.
	</desc>
	<defs>
		<clipPath id="clip114_513">
			<rect id="mood-smile" rx="0.000000" width="31.000000" height="31.000000" transform="translate(21.500000 21.500000)" fill="white" fill-opacity="0"/>
		</clipPath>
	</defs>
	<circle id="Ellipse 2" cx="37.000000" cy="37.000000" r="36.000000" fill="#525FE1" fill-opacity="0.100000"/>
	<circle id="Ellipse 2" cx="37.000000" cy="37.000000" r="36.000000" stroke="#525FE1" stroke-opacity="1.000000" stroke-width="2.000000"/>
	<rect id="mood-smile" rx="0.000000" width="31.000000" height="31.000000" transform="translate(21.500000 21.500000)" fill="#FFFFFF" fill-opacity="0"/>
	<g clip-path="url(#clip114_513)">
		<path id="Vector" d="M25.91 41.59C26.51 43.04 27.4 44.37 28.51 45.48C29.62 46.59 30.95 47.48 32.4 48.08C33.86 48.68 35.42 49 37 49C38.57 49 40.13 48.68 41.59 48.08C43.04 47.48 44.37 46.59 45.48 45.48C46.59 44.37 47.48 43.04 48.08 41.59C48.68 40.13 49 38.57 49 37C49 35.42 48.68 33.86 48.08 32.4C47.48 30.95 46.59 29.62 45.48 28.51C44.37 27.4 43.04 26.51 41.59 25.91C40.13 25.31 38.57 25 37 25C35.42 25 33.86 25.31 32.4 25.91C30.95 26.51 29.62 27.4 28.51 28.51C27.4 29.62 26.51 30.95 25.91 32.4C25.31 33.86 25 35.42 25 37C25 38.57 25.31 40.13 25.91 41.59ZM33 34.33L33.01 34.33M41 34.33L41.01 34.33M33.66 41C34.1 41.44 34.61 41.79 35.19 42.03C35.76 42.27 36.37 42.4 37 42.4C37.62 42.4 38.23 42.27 38.8 42.03C39.38 41.79 39.89 41.44 40.33 41" stroke="#525FE1" stroke-opacity="1.000000" stroke-width="2.000000" stroke-linejoin="round" stroke-linecap="round"/>
	</g>
</svg>
