<svg width="20.500000" height="15.500000" viewBox="0 0 20.5 15.5" fill="none" xmlns="http://www.w3.org/2000/svg" xmlns:xlink="http://www.w3.org/1999/xlink">
	<desc>
			Created with Pixso.
	</desc>
	<defs/>
	<path id="Vector" d="M4.33 14.16C4.71 14.53 5.21 14.75 5.75 14.75C6.28 14.75 6.78 14.53 7.16 14.16C7.53 13.78 7.75 13.28 7.75 12.75C7.75 12.21 7.53 11.71 7.16 11.33C6.78 10.96 6.28 10.75 5.75 10.75C5.21 10.75 4.71 10.96 4.33 11.33C3.96 11.71 3.75 12.21 3.75 12.75C3.75 13.28 3.96 13.78 4.33 14.16ZM14.33 14.16C14.71 14.53 15.21 14.75 15.75 14.75C16.28 14.75 16.78 14.53 17.16 14.16C17.53 13.78 17.75 13.28 17.75 12.75C17.75 12.21 17.53 11.71 17.16 11.33C16.78 10.96 16.28 10.75 15.75 10.75C15.21 10.75 14.71 10.96 14.33 11.33C13.96 11.71 13.75 12.21 13.75 12.75C13.75 13.28 13.96 13.78 14.33 14.16ZM3.75 12.75L1.75 12.75L1.75 8.75M0.75 0.75L11.75 0.75L11.75 12.75M7.75 12.75L13.75 12.75M17.75 12.75L19.75 12.75L19.75 6.75L16.75 1.75L11.75 1.75M19.75 6.75L11.75 6.75M1.75 4.75L5.75 4.75" stroke="#FFFFFF" stroke-opacity="1.000000" stroke-width="1.500000" stroke-linejoin="round" stroke-linecap="round"/>
</svg>
