<svg width="203.000000" height="56.000000" viewBox="0 0 203 56" fill="none" xmlns="http://www.w3.org/2000/svg" xmlns:xlink="http://www.w3.org/1999/xlink">
	<desc>
			Created with Pixso.
	</desc>
	<defs/>
	<path id="SafeCart" d="M112.16 39.65L109.51 39.65L109.51 25.14L106.37 25.14L106.37 22.93L109.51 22.93L109.51 20.6C109.51 17.6 111.21 16 114.34 16L118.12 16L118.12 18.2L114.34 18.2C112.93 18.2 112.16 19.05 112.16 20.6L112.16 22.93L117.67 22.93L117.67 25.14L112.16 25.14L112.16 39.65ZM77.78 40C72.15 40 68.28 37.13 68 32.96L70.81 32.96C71.13 35.8 73.85 37.6 77.78 37.6C81.21 37.6 83 36.21 83 33.91C83 31.67 81.02 30.82 78.87 30.16L75 28.96C73.21 28.39 68.7 27.44 68.7 23.12C68.7 19.56 71.67 17.23 76.31 17.23C81.43 17.23 84.6 19.78 84.95 24.48L82.17 24.48C81.94 21.36 79.74 19.62 76.18 19.62C73.37 19.62 71.39 20.88 71.39 23C71.39 25.42 73.95 25.93 75.86 26.53L79.48 27.63C82.33 28.52 85.75 29.62 85.75 33.78C85.75 37.66 82.74 40 77.78 40ZM148.92 40C142.04 40 137.98 35.23 137.98 28.55C137.98 21.99 142.04 17.23 148.92 17.23C154.61 17.23 158.52 20.5 159.47 26.06L156.69 26.06C155.86 22.02 152.98 19.65 148.92 19.65C143.89 19.65 140.79 23.09 140.79 28.55C140.79 34.19 143.89 37.57 148.92 37.57C153.11 37.57 155.83 35.33 156.69 31.16L159.47 31.16C158.48 36.9 154.77 40 148.92 40ZM202.71 39.65L200.82 39.65C197.53 39.65 195.77 37.98 195.77 34.89L195.77 25.14L192.63 25.14L192.63 22.93L195.77 22.93L195.77 17.23L198.42 17.23L198.42 22.93L203 22.93L203 25.14L198.42 25.14L198.42 34.89C198.42 36.56 199.25 37.44 200.82 37.44L202.71 37.44L202.71 39.65ZM94.75 39.9C90.91 39.9 88.45 37.95 88.45 34.89C88.45 31.04 92.23 30.31 95.62 29.97C98.21 29.71 100.45 29.75 100.48 28.39C100.45 26.28 98.69 24.79 96.13 24.79C93.67 24.79 91.75 26.15 91.46 28.14L88.84 28.14C89.16 24.86 92.16 22.55 96.19 22.55C100.38 22.55 103.07 25.01 103.07 28.55L103.07 36.68C103.07 37.22 103.36 37.5 103.94 37.5L104.9 37.5L104.9 39.65L103.39 39.65C101.57 39.65 100.61 38.83 100.61 37.28L100.61 36.78C99.62 38.7 97.7 39.9 94.75 39.9ZM127.51 40C122.49 40 119.16 36.37 119.16 31.35C119.16 25.65 122.9 22.55 127.19 22.55C131.86 22.55 134.87 25.65 134.96 31.01L134.96 31.73L121.82 31.73C121.98 35.3 124.09 37.72 127.51 37.72C129.88 37.72 131.61 36.56 132.31 34.38L134.9 34.38C134.13 37.82 131.38 40 127.51 40ZM168.83 39.9C164.99 39.9 162.52 37.95 162.52 34.89C162.52 31.04 166.3 30.31 169.69 29.97C172.28 29.71 174.52 29.75 174.55 28.39C174.52 26.28 172.76 24.79 170.2 24.79C167.74 24.79 165.82 26.15 165.53 28.14L162.91 28.14C163.23 24.86 166.24 22.55 170.27 22.55C174.46 22.55 177.14 25.01 177.14 28.55L177.14 36.68C177.14 37.22 177.43 37.5 178.01 37.5L178.97 37.5L178.97 39.65L177.46 39.65C175.64 39.65 174.68 38.83 174.68 37.28L174.68 36.78C173.69 38.7 171.77 39.9 168.83 39.9ZM184.6 39.65L181.94 39.65L181.94 22.93L184.06 22.93L184.38 26.12C185.46 23.97 187.45 22.84 190.26 22.84L190.84 22.84L190.84 25.42L190.26 25.42C186.68 25.42 184.6 27.44 184.6 30.88L184.6 39.65ZM121.98 29.56L132.18 29.56C131.7 26.62 129.91 24.83 127.19 24.83C124.5 24.83 122.52 26.56 121.98 29.56ZM95.14 37.66C98.3 37.66 100.48 35.67 100.48 32.9L100.48 30.72C99.74 31.7 97.86 31.89 95.78 32.11C93.44 32.36 91.11 32.68 91.11 34.82C91.11 36.56 92.71 37.66 95.14 37.66ZM169.21 37.66C172.38 37.66 174.55 35.67 174.55 32.9L174.55 30.72C173.82 31.7 171.93 31.89 169.85 32.11C167.51 32.36 165.18 32.68 165.18 34.82C165.18 36.56 166.78 37.66 169.21 37.66Z" fill="#006044" fill-opacity="1.000000" fill-rule="evenodd"/>
	<rect id="Rectangle 4" rx="28.000000" width="56.000000" height="56.000000" fill="#006044" fill-opacity="1.000000"/>
	<path id="Vector" d="M28 12C26.01 12 24.1 12.8 22.69 14.23C21.29 15.66 20.5 17.59 20.5 19.61L20.5 24C19.66 24.33 18.89 24.81 18.23 25.44C16.16 27.52 16 32 16 33.33C16 34.65 16.16 39.13 18.23 41.22C20.06 43.07 24.02 44 28 44C31.97 44 35.93 43.08 37.76 41.24C39.83 39.13 40 34.65 40 33.33C40 32 39.83 27.52 37.76 25.44C37.1 24.81 36.33 24.33 35.5 24L35.5 19.61C35.5 17.59 34.7 15.66 33.3 14.23C31.89 12.8 29.98 12 28 12ZM23.5 19.61C23.5 18.4 23.97 17.24 24.81 16.38C25.66 15.52 26.8 15.04 28 15.04C29.19 15.04 30.33 15.52 31.18 16.38C32.02 17.24 32.5 18.4 32.5 19.61L32.5 23.09C29.52 22.54 26.47 22.54 23.5 23.09L23.5 19.61ZM29.5 33.33L29.5 34.85C29.5 35.26 29.34 35.64 29.06 35.93C28.77 36.22 28.39 36.38 28 36.38C27.6 36.38 27.22 36.22 26.93 35.93C26.65 35.64 26.5 35.26 26.5 34.85L26.5 33.33C26.1 33.33 25.72 33.17 25.43 32.88C25.15 32.6 25 32.21 25 31.8C25 31.4 25.15 31.01 25.43 30.73C25.72 30.44 26.1 30.28 26.5 30.28L29.5 30.28C29.89 30.28 30.27 30.44 30.56 30.73C30.84 31.01 31 31.4 31 31.8C31 32.21 30.84 32.6 30.56 32.88C30.27 33.17 29.89 33.33 29.5 33.33Z" fill="#FFFFFF" fill-opacity="1.000000" fill-rule="nonzero"/>
</svg>
