<svg width="20.000000" height="20.000000" viewBox="0 0 20 20" fill="none" xmlns="http://www.w3.org/2000/svg" xmlns:xlink="http://www.w3.org/1999/xlink">
	<desc>
			Created with Pixso.
	</desc>
	<defs>
		<clipPath id="clip114_918">
			<rect id="mail" rx="0.000000" width="19.000000" height="19.000000" transform="translate(0.500000 0.500000)" fill="white" fill-opacity="0"/>
		</clipPath>
	</defs>
	<rect id="mail" rx="0.000000" width="19.000000" height="19.000000" transform="translate(0.500000 0.500000)" fill="#FFFFFF" fill-opacity="0"/>
	<g clip-path="url(#clip114_918)">
		<path id="Vector" d="M2.98 4.65C3.3 4.34 3.72 4.16 4.16 4.16L15.83 4.16C16.27 4.16 16.69 4.34 17.01 4.65C17.32 4.96 17.5 5.39 17.5 5.83L17.5 14.16C17.5 14.6 17.32 15.03 17.01 15.34C16.69 15.65 16.27 15.83 15.83 15.83L4.16 15.83C3.72 15.83 3.3 15.65 2.98 15.34C2.67 15.03 2.5 14.6 2.5 14.16L2.5 5.83C2.5 5.39 2.67 4.96 2.98 4.65ZM2.5 5.83L10 10.83L17.5 5.83" stroke="#FFFFFF" stroke-opacity="1.000000" stroke-width="1.200000" stroke-linejoin="round"/>
	</g>
</svg>
