<svg width="19.503174" height="19.503067" viewBox="0 0 19.5032 19.5031" fill="none" xmlns="http://www.w3.org/2000/svg" xmlns:xlink="http://www.w3.org/1999/xlink">
	<desc>
			Created with Pixso.
	</desc>
	<defs/>
	<path id="Vector" d="M1.28 10.42C1.63 11.27 2.15 12.04 2.8 12.69C3.45 13.34 4.22 13.86 5.07 14.21C5.92 14.56 6.83 14.75 7.75 14.75C8.66 14.75 9.57 14.56 10.42 14.21C11.27 13.86 12.04 13.34 12.69 12.69C13.34 12.04 13.86 11.27 14.21 10.42C14.56 9.57 14.75 8.66 14.75 7.75C14.75 6.83 14.56 5.92 14.21 5.07C13.86 4.22 13.34 3.45 12.69 2.8C12.04 2.15 11.27 1.63 10.42 1.28C9.57 0.93 8.66 0.75 7.75 0.75C6.83 0.75 5.92 0.93 5.07 1.28C4.22 1.63 3.45 2.15 2.8 2.8C2.15 3.45 1.63 4.22 1.28 5.07C0.93 5.92 0.75 6.83 0.75 7.75C0.75 8.66 0.93 9.57 1.28 10.42ZM18.75 18.75L12.75 12.75" stroke="#006044" stroke-opacity="1.000000" stroke-width="1.500000" stroke-linejoin="round" stroke-linecap="round"/>
</svg>
