<svg width="14.647949" height="13.995728" viewBox="0 0 14.6479 13.9957" fill="none" xmlns="http://www.w3.org/2000/svg" xmlns:xlink="http://www.w3.org/1999/xlink">
	<desc>
			Created with Pixso.
	</desc>
	<defs/>
	<path id="Vector" d="M4.82 4.22L0.57 4.84L0.49 4.85C0.38 4.88 0.27 4.94 0.19 5.03C0.11 5.11 0.05 5.21 0.02 5.33C-0.01 5.44 -0.01 5.56 0.02 5.68C0.05 5.79 0.11 5.89 0.2 5.97L3.28 8.97L2.55 13.21L2.54 13.28C2.54 13.4 2.56 13.52 2.61 13.63C2.67 13.73 2.75 13.82 2.85 13.88C2.95 13.95 3.06 13.98 3.18 13.99C3.3 13.99 3.41 13.97 3.52 13.91L7.32 11.91L11.12 13.91L11.19 13.94C11.3 13.99 11.41 14 11.53 13.98C11.65 13.96 11.76 13.92 11.85 13.84C11.94 13.77 12.01 13.67 12.05 13.56C12.1 13.45 12.11 13.33 12.09 13.21L11.36 8.97L14.44 5.97L14.49 5.92C14.57 5.83 14.62 5.72 14.64 5.6C14.65 5.48 14.64 5.36 14.6 5.25C14.55 5.15 14.48 5.05 14.39 4.98C14.3 4.9 14.19 4.85 14.07 4.84L9.82 4.22L7.92 0.37C7.86 0.26 7.78 0.16 7.67 0.1C7.57 0.03 7.44 0 7.32 0C7.19 0 7.07 0.03 6.97 0.1C6.86 0.16 6.78 0.26 6.72 0.37L4.82 4.22Z" fill="#FFC436" fill-opacity="1.000000" fill-rule="nonzero"/>
	<path id="Vector" d="M0.57 4.84L0.49 4.85C0.38 4.88 0.27 4.94 0.19 5.03C0.11 5.11 0.05 5.21 0.02 5.33C-0.01 5.44 -0.01 5.56 0.02 5.68C0.05 5.79 0.11 5.89 0.2 5.97L3.28 8.97L2.55 13.21L2.54 13.28C2.54 13.4 2.56 13.52 2.61 13.63C2.67 13.73 2.75 13.82 2.85 13.88C2.95 13.95 3.06 13.98 3.18 13.99C3.3 13.99 3.41 13.97 3.52 13.91L7.32 11.91L11.12 13.91L11.19 13.94C11.3 13.99 11.41 14 11.53 13.98C11.65 13.96 11.76 13.92 11.85 13.84C11.94 13.77 12.01 13.67 12.05 13.56C12.1 13.45 12.11 13.33 12.09 13.21L11.36 8.97L14.44 5.97L14.49 5.92C14.57 5.83 14.62 5.72 14.64 5.6C14.65 5.48 14.64 5.36 14.6 5.25C14.55 5.15 14.48 5.05 14.39 4.98C14.3 4.9 14.19 4.85 14.07 4.84L9.82 4.22L7.92 0.37C7.86 0.26 7.78 0.16 7.67 0.1C7.57 0.03 7.44 0 7.32 0C7.19 0 7.07 0.03 6.97 0.1C6.86 0.16 6.78 0.26 6.72 0.37L4.82 4.22L0.57 4.84Z" stroke="#FFC436" stroke-opacity="1.000000" stroke-width="0.000000" stroke-linejoin="round"/>
</svg>
