<svg width="74.000000" height="74.000000" viewBox="0 0 74 74" fill="none" xmlns="http://www.w3.org/2000/svg" xmlns:xlink="http://www.w3.org/1999/xlink">
	<desc>
			Created with Pixso.
	</desc>
	<defs>
		<clipPath id="clip114_498">
			<rect id="building-store" rx="0.000000" width="31.000000" height="31.000000" transform="translate(21.500000 21.500000)" fill="white" fill-opacity="0"/>
		</clipPath>
	</defs>
	<circle id="Ellipse 2" cx="37.000000" cy="37.000000" r="36.000000" fill="#FD8D14" fill-opacity="0.100000"/>
	<circle id="Ellipse 2" cx="37.000000" cy="37.000000" r="36.000000" stroke="#FD8D14" stroke-opacity="1.000000" stroke-width="2.000000"/>
	<rect id="building-store" rx="0.000000" width="31.000000" height="31.000000" transform="translate(21.500000 21.500000)" fill="#FFFFFF" fill-opacity="0"/>
	<g clip-path="url(#clip114_498)">
		<path id="Vector" d="M25 49L49 49M41 31.66C41 32.72 41.42 33.74 42.17 34.49C42.92 35.24 43.93 35.66 45 35.66C46.06 35.66 47.07 35.24 47.82 34.49C48.57 33.74 49 32.72 49 31.66L49 30.33L46.33 25L27.66 25L25 30.33L25 31.66C25 32.72 25.42 33.74 26.17 34.49C26.92 35.24 27.93 35.66 29 35.66C30.06 35.66 31.07 35.24 31.82 34.49C32.57 33.74 33 32.72 33 31.66L33 30.33M33 31.66C33 32.72 33.42 33.74 34.17 34.49C34.92 35.24 35.93 35.66 37 35.66C38.06 35.66 39.07 35.24 39.82 34.49C40.57 33.74 41 32.72 41 31.66L41 30.33M49 30.33L25 30.33M27.66 49L27.66 35.46M46.33 49L46.33 35.46M33 49L33 43.66C33 42.95 33.28 42.28 33.78 41.78C34.28 41.28 34.95 41 35.66 41L38.33 41C39.04 41 39.71 41.28 40.21 41.78C40.71 42.28 41 42.95 41 43.66L41 49" stroke="#FD8D14" stroke-opacity="1.000000" stroke-width="2.000000" stroke-linejoin="round" stroke-linecap="round"/>
	</g>
</svg>
